<?xml version="1.0" encoding="UTF-8"?>
<svg version="1.1" xmlns="http://www.w3.org/2000/svg" width="636" height="466">
<path d="M0 0 C1.54601757 -0.00374051 3.09203326 -0.00834363 4.63804597 -0.01373065 C8.87015649 -0.02592628 13.10218777 -0.02570425 17.33431184 -0.02334189 C21.90499034 -0.02293286 26.47564371 -0.03398105 31.04631042 -0.04345703 C39.99470195 -0.06004866 48.94306711 -0.06556573 57.89147273 -0.06668179 C65.16661701 -0.06763304 72.44175262 -0.0717472 79.71689415 -0.07808304 C100.35451041 -0.09568969 120.9921059 -0.1049227 141.62972973 -0.10342209 C143.29755277 -0.10330222 143.29755277 -0.10330222 144.99906921 -0.10317993 C146.11231251 -0.10309817 147.22555581 -0.10301641 148.37253376 -0.10293217 C166.41519928 -0.10211922 184.45778132 -0.12126067 202.50042269 -0.14945666 C221.03749493 -0.17819623 239.57452648 -0.1919964 258.11162156 -0.19026911 C268.51440501 -0.18960563 278.91710092 -0.19507983 289.31986427 -0.21662521 C298.17637591 -0.23485099 307.03276033 -0.23917277 315.88928262 -0.22560637 C320.4052401 -0.21908407 324.92095359 -0.21893285 329.43688774 -0.23631287 C333.57670167 -0.25208111 337.71607891 -0.24914196 341.85588243 -0.2317446 C343.34774364 -0.22868296 344.83963776 -0.23227539 346.33146016 -0.24346475 C358.93338069 -0.33167128 369.76399937 1.51359551 379.56278992 9.90805054 C385.75054396 16.54642255 388.88447768 24.08769583 388.89343643 33.06140327 C388.89651538 34.10849852 388.89651538 34.10849852 388.89965653 35.1767472 C388.90534469 37.53341698 388.90386705 39.89002864 388.90245056 42.2467041 C388.90503317 43.94642227 388.90804603 45.64613983 388.91145396 47.34585655 C388.91953968 52.030556 388.92131441 56.71524014 388.92205143 61.39994574 C388.92389929 66.44715125 388.93144532 71.49434877 388.93818665 76.54154968 C388.95178223 87.58501148 388.95779676 98.62846965 388.9621973 109.67193842 C388.96495798 116.56555286 388.96919504 123.4591659 388.97370148 130.35277939 C388.98589635 149.4328687 388.99619484 168.51295688 388.99957657 187.59305 C388.99979613 188.81480403 389.0000157 190.03655805 389.00024192 191.29533493 C389.0004602 192.52004501 389.00067848 193.7447551 389.00090337 195.00657761 C389.00134684 197.48838369 389.0017934 199.97018977 389.00224304 202.45199585 C389.00246447 203.68306245 389.0026859 204.91412905 389.00291404 206.18250071 C389.00686175 226.12871416 389.02431399 246.07489107 389.04760256 266.0210904 C389.07131044 286.49140493 389.08377818 306.96170112 389.08494449 327.4320296 C389.08586163 338.92858486 389.09162373 350.42509252 389.1097641 361.92163467 C389.12515754 371.71196612 389.13029005 381.50223527 389.122026 391.29257651 C389.11811666 396.28806658 389.11906294 401.28343119 389.13308334 406.27890587 C389.14580528 410.853576 389.14463971 415.42802615 389.13249263 420.0026959 C389.13053266 421.65618954 389.13362791 423.30969868 389.14233699 424.96317054 C389.20532472 437.73194843 388.08709091 447.68089239 378.76200867 457.26742554 C373.46386344 461.80869287 368.86052422 465.11310998 361.76200867 465.26742554 C361.76200867 465.59742554 361.76200867 465.92742554 361.76200867 466.26742554 C313.39508952 466.33609277 265.02817529 466.3889549 216.66121698 466.42062153 C210.95099903 466.42437364 205.24078117 466.42825661 199.53056335 466.43222046 C197.82536167 466.43340086 197.82536167 466.43340086 196.08571146 466.4346051 C177.67901811 466.44765886 159.27235286 466.47131255 140.86567618 466.49888393 C121.97860238 466.52693892 103.09154331 466.543602 84.20444953 466.54969102 C72.55020184 466.55380726 60.8960336 466.56680797 49.24181037 466.59117494 C41.24997541 466.60703327 33.25818153 466.61182566 25.26633199 466.60792967 C20.65553194 466.60600829 16.04487074 466.60895294 11.43409538 466.62504196 C7.20959974 466.63967523 2.9853359 466.64035571 -1.23917057 466.63012222 C-2.76424213 466.62885802 -4.28932835 466.63263449 -5.81437121 466.64207508 C-16.61673756 466.70503599 -25.67808965 465.60318462 -35.23799133 460.26742554 C-36.59924133 459.52492554 -36.59924133 459.52492554 -37.98799133 458.76742554 C-40.23799133 457.26742554 -40.23799133 457.26742554 -42.23799133 454.26742554 C-44.03151678 452.89996383 -45.89093911 451.68661689 -47.77705383 450.45101929 C-48.25916321 450.06043335 -48.74127258 449.66984741 -49.23799133 449.26742554 C-49.23799133 448.60742554 -49.23799133 447.94742554 -49.23799133 447.26742554 C-50.10291435 446.88964541 -50.10291435 446.88964541 -50.98531055 446.50423336 C-53.52775532 445.10833404 -55.22923803 443.52789818 -57.28088379 441.47850037 C-58.07586777 440.68915604 -58.87085175 439.89981171 -59.68992615 439.08654785 C-60.55294342 438.21948212 -61.41596069 437.35241638 -62.30513 436.45907593 C-63.67885017 435.09061272 -63.67885017 435.09061272 -65.08032227 433.69450378 C-67.58890061 431.19503709 -70.09111862 428.68929254 -72.59197021 426.18209767 C-75.20969751 423.55930559 -77.8323024 420.94139812 -80.45413208 418.32270813 C-84.85501027 413.92546754 -89.25165669 409.52402878 -93.64595032 405.12020874 C-98.72845083 400.02681733 -103.81812543 394.94068011 -108.91157359 389.85823828 C-113.28389624 385.4949863 -117.65231587 381.12785543 -122.01748639 376.75744814 C-124.62496062 374.14685387 -127.23377207 371.53763451 -129.84610558 368.93190193 C-132.7561605 366.02868744 -135.65798783 363.11738394 -138.55903625 360.20516968 C-139.8626712 358.90760742 -139.8626712 358.90760742 -141.19264221 357.58383179 C-141.97916672 356.79166763 -142.76569122 355.99950348 -143.5760498 355.18333435 C-144.60665669 354.15159639 -144.60665669 354.15159639 -145.65808392 353.09901524 C-147.23799133 351.26742554 -147.23799133 351.26742554 -148.23799133 348.26742554 C-148.85674133 347.95805054 -149.47549133 347.64867554 -150.11299133 347.32992554 C-152.6677366 346.05255291 -153.63660439 344.59671563 -155.23799133 342.26742554 C-156.91461488 340.59080199 -158.60902254 339.09711343 -160.42549133 337.57992554 C-170.54169902 328.92400724 -170.54169902 328.92400724 -172.06221008 325.30648804 C-173.17728073 323.01764327 -173.17728073 323.01764327 -175.93037415 321.50888062 C-179.50247502 319.08819431 -182.32865398 316.43153138 -185.33564758 313.36508179 C-185.8923967 312.80550278 -186.44914581 312.24592377 -187.02276611 311.66938782 C-188.78680251 309.89424819 -190.54374074 308.11227277 -192.30049133 306.32992554 C-193.48296592 305.13740389 -194.66590469 303.94534232 -195.84931946 302.75375366 C-198.02872209 300.5581021 -200.20537183 298.35980013 -202.37886047 296.15829468 C-204.9876557 293.51703117 -207.6116787 290.89127754 -210.23799133 288.26742554 C-211.4015355 287.09372282 -212.56436426 285.91931018 -213.72627258 284.74398804 C-221.45851747 276.84029864 -221.45851747 276.84029864 -229.67549133 269.45492554 C-238.75813836 261.67544091 -245.71886329 251.84694292 -246.71455383 239.70101929 C-247.30016003 227.03902449 -244.86729854 216.77747764 -236.60908508 206.84555054 C-233.28343801 203.22952571 -229.87651863 199.70126441 -226.42549133 196.20492554 C-225.41929749 195.18435059 -225.41929749 195.18435059 -224.39277649 194.14315796 C-223.75775208 193.5125647 -223.12272766 192.88197144 -222.46846008 192.23226929 C-221.60837341 191.37556641 -221.60837341 191.37556641 -220.73091125 190.5015564 C-219.23799133 189.26742554 -219.23799133 189.26742554 -217.23799133 189.26742554 C-217.23799133 188.60742554 -217.23799133 187.94742554 -217.23799133 187.26742554 C-216.57799133 187.26742554 -215.91799133 187.26742554 -215.23799133 187.26742554 C-214.90799133 186.27742554 -214.57799133 185.28742554 -214.23799133 184.26742554 C-212.82343674 182.87343311 -212.82343674 182.87343311 -210.94544983 181.34477234 C-204.94068085 176.24297352 -199.4688309 170.61340493 -193.9186554 165.02987671 C-192.69268655 163.8003459 -191.46647855 162.57105351 -190.24005127 161.34197998 C-187.61361298 158.70902455 -184.98869315 156.07456811 -182.36492157 153.43895531 C-178.2161755 149.27183366 -174.06301217 145.10913335 -169.90907288 140.94718933 C-158.10266686 129.11669022 -146.30224802 117.28022957 -134.50605774 105.43954468 C-127.98041575 98.88936634 -121.45119386 92.3427777 -114.91810203 85.80002958 C-110.78715446 81.66253906 -106.66075444 77.52058219 -102.53765821 73.37526834 C-99.9763646 70.80225827 -97.41091271 68.23342631 -94.84425545 65.66576767 C-93.65409514 64.47345746 -92.46566 63.27942235 -91.27907372 62.08355522 C-89.66084674 60.4531609 -88.03658326 58.82902779 -86.41065979 57.20631409 C-85.50294453 56.29545642 -84.59522926 55.38459875 -83.66000748 54.44613934 C-81.52294861 52.52375758 -79.8164519 51.4397461 -77.23799133 50.26742554 C-75.58460872 48.35967637 -74.39644652 46.6194306 -73.36054993 44.31820679 C-72.11722644 42.04680241 -70.91342839 40.944593 -68.90205383 39.32992554 C-65.11901875 36.13164982 -61.68478303 32.7132664 -58.26142883 29.14242554 C-57.16664877 28.01195371 -56.07159161 26.88175017 -54.97627258 25.75180054 C-53.29578242 24.01615633 -51.62135466 22.27628636 -49.96308899 20.51937866 C-35.34603154 5.07264574 -21.37899509 -0.04915179 0 0 Z M42.26200867 158.51742554 C41.73220398 159.05238647 41.20239929 159.58734741 40.65653992 160.13851929 C37.85321494 162.99614596 35.17519027 165.92711252 32.57060242 168.96664429 C28.22642038 173.9745375 23.54151375 178.6379635 18.84672546 183.31307983 C17.32709198 184.82735133 15.81288349 186.34689984 14.29911804 187.86703491 C9.61660906 192.5526072 4.87873191 197.10685553 -0.15376282 201.41903687 C-4.27765973 205.07629626 -8.17184482 208.97670092 -12.0761261 212.86532593 C-13.55863081 214.3380111 -15.05148903 215.7996779 -16.54463196 217.26156616 C-17.50166722 218.21207894 -18.45807038 219.16322868 -19.41377258 220.11508179 C-20.26882385 220.96078735 -21.12387512 221.80649292 -22.00483704 222.67782593 C-24.35124076 225.3987513 -25.7688713 228.00179784 -27.23799133 231.26742554 C-27.73299133 232.25742554 -27.73299133 232.25742554 -28.23799133 233.26742554 C-27.57784586 235.60280847 -27.57784586 235.60280847 -26.48799133 238.14242554 C-26.14252258 239.00609741 -25.79705383 239.86976929 -25.44111633 240.75961304 C-24.25761552 243.22652058 -22.95609615 245.14711807 -21.23799133 247.26742554 C-20.77779602 247.84363647 -20.31760071 248.41984741 -19.84346008 249.01351929 C-16.59467202 252.88879541 -13.2100407 256.10599849 -9.23799133 259.26742554 C-3.18157571 264.22526107 2.29701993 269.69775315 7.79428482 275.25510216 C9.45686116 276.93525987 11.12312029 278.61168581 12.79042053 280.28715515 C17.52552145 285.04655205 22.25482506 289.81167931 26.9797821 294.58114624 C29.88188878 297.51007654 32.78888256 300.43408261 35.69890976 303.35514259 C36.80197313 304.46439517 37.90313787 305.57553927 39.00232315 306.68863487 C40.53825477 308.24384805 42.08030964 309.79274205 43.62382507 311.34042358 C44.4976181 312.22167404 45.37141113 313.1029245 46.27168274 314.01087952 C50.98950377 318.28581403 54.34426012 319.80512274 60.61357117 319.54476929 C63.74383774 319.14068033 65.42177494 318.40116806 67.76200867 316.26742554 C70.23442459 312.19990256 70.89775841 310.12284486 70.14668274 305.38998413 C68.95015601 301.09524636 66.86030773 298.6392085 63.66972351 295.49398804 C63.15249222 294.97588058 62.63526093 294.45777313 62.10235596 293.92396545 C60.40639369 292.23214968 58.69026432 290.56253515 56.97294617 288.89242554 C55.78622349 287.71690539 54.60082747 286.54004456 53.41670227 285.36190796 C50.30953045 282.27755076 47.18476351 279.21164474 44.05589294 276.14932251 C40.86109883 273.0161094 37.6834035 269.86565801 34.50419617 266.71664429 C28.27331955 260.54995051 22.02223026 254.40432728 15.76200867 248.26742554 C26.32200867 247.93742554 36.88200867 247.60742554 47.76200867 247.26742554 C47.76200867 246.93742554 47.76200867 246.60742554 47.76200867 246.26742554 C121.02200867 246.26742554 194.28200867 246.26742554 269.76200867 246.26742554 C269.76200867 246.59742554 269.76200867 246.92742554 269.76200867 247.26742554 C275.70200867 247.26742554 281.64200867 247.26742554 287.76200867 247.26742554 C283.04236721 252.75967055 278.17444662 257.99223046 273.03544617 263.09164429 C272.32473969 263.80093582 271.6140332 264.51022736 270.88179016 265.24101257 C268.63589389 267.48137039 266.38653239 269.71821066 264.13700867 271.95492554 C262.6211503 273.46575914 261.10552332 274.97682494 259.59013367 276.48812866 C256.20588269 279.8624907 252.82010788 283.23530417 249.42991638 286.60369873 C247.94100382 288.08887907 246.46326981 289.58524669 244.98710632 291.08309937 C242.76200867 293.26742554 242.76200867 293.26742554 239.69950867 295.64242554 C235.80211446 299.12520334 233.07281277 302.20152745 232.53153992 307.54086304 C232.72710041 311.90113773 233.45164686 313.88723233 236.26200867 317.32992554 C239.52297955 319.58752076 242.52642707 319.82678137 246.41825867 319.83383179 C252.89778264 318.26794683 257.53911634 312.73203213 262.02372742 308.13070679 C262.6962001 307.45066086 263.36867279 306.77061493 264.06152344 306.06996155 C266.19577417 303.91140494 268.3233995 301.74649991 270.44950867 299.57992554 C273.2601957 296.71614107 276.07736946 293.85897447 278.89872742 291.00570679 C279.54250839 290.34532913 280.18628937 289.68495148 280.84957886 289.00456238 C281.45062943 288.39690536 282.05167999 287.78924835 282.67094421 287.16317749 C283.19689682 286.62675125 283.72284943 286.09032501 284.26473999 285.53764343 C285.76200867 284.26742554 285.76200867 284.26742554 288.76200867 283.26742554 C289.09200867 282.27742554 289.42200867 281.28742554 289.76200867 280.26742554 C291.08668613 279.58372104 292.42064499 278.91778368 293.76200867 278.26742554 C294.42200867 277.27742554 295.08200867 276.28742554 295.76200867 275.26742554 C297.37799732 273.88229241 298.9963012 272.49976021 300.62675476 271.13168335 C304.96957598 267.34003199 308.99817485 263.21579475 313.07450867 259.14242554 C314.43285828 257.80244507 314.43285828 257.80244507 315.81864929 256.43539429 C316.6829657 255.57301147 317.5472821 254.71062866 318.43778992 253.82211304 C319.22065369 253.04335815 320.00351746 252.26460327 320.81010437 251.46224976 C322.6174672 249.42995559 323.63214121 247.70963549 324.76200867 245.26742554 C325.44263367 244.52492554 326.12325867 243.78242554 326.82450867 243.01742554 C329.27696055 239.53652609 329.94632141 236.45052355 329.76200867 232.26742554 C326.70597509 221.57130803 316.31909741 213.63810879 308.66264343 205.98275757 C306.9304999 204.24839239 305.20655556 202.50612963 303.48271179 200.76351929 C302.38228845 199.66016767 301.28139451 198.55728515 300.17997742 197.45492554 C299.66541489 196.93317749 299.15085236 196.41142944 298.62069702 195.87387085 C296.15787065 193.09840358 296.15787065 193.09840358 292.76200867 192.26742554 C292.43200867 191.27742554 292.10200867 190.28742554 291.76200867 189.26742554 C288.76728101 185.98288553 285.45504188 183.09647737 282.13700867 180.14242554 C275.07504871 173.81718272 268.22376087 167.24279688 262.07450867 160.01742554 C258.08729971 155.35767531 253.67665209 150.23897334 247.76200867 148.26742554 C242.79464474 147.89947265 239.65553754 148.02281814 235.76200867 151.26742554 C233.10129035 155.08112179 232.0548587 158.42271882 232.87713623 163.08982849 C236.2380384 171.3607276 245.79827147 178.4343785 252.04739571 184.62797737 C253.52502404 186.09258527 254.99927921 187.56052021 256.47280884 189.0292511 C259.58718576 192.1323536 262.70556726 195.23141178 265.82450867 198.32992554 C269.47358825 201.95536759 273.12098936 205.58246804 276.76426506 209.21374321 C278.21811591 210.66110663 279.67493599 212.1054357 281.13189697 213.54966736 C282.00378159 214.41824875 282.8756662 215.28683014 283.77397156 216.18173218 C284.54624588 216.94876968 285.3185202 217.71580719 286.11419678 218.50608826 C287.76200867 220.26742554 287.76200867 220.26742554 287.76200867 221.26742554 C198.00200867 221.26742554 108.24200867 221.26742554 15.76200867 221.26742554 C19.3537351 217.07707803 22.72884224 213.17952873 26.61820984 209.3453064 C27.98443733 207.99371681 27.98443733 207.99371681 29.37826538 206.61482239 C29.85526068 206.14519011 30.33225597 205.67555782 30.82370567 205.19169426 C32.33623764 203.70147011 33.84452856 202.20707051 35.35168457 200.71141052 C39.63220249 196.46423028 43.91699192 192.2214316 48.21195984 187.98886108 C50.85134323 185.38723216 53.4832674 182.77825143 56.11063576 180.16449165 C57.10735802 179.17578588 58.10684252 178.18985622 59.10919762 177.2068615 C60.51105005 175.83164437 61.90272914 174.44608037 63.29399109 173.06015015 C64.08641708 172.27740219 64.87884308 171.49465424 65.69528198 170.68818665 C68.37623444 167.54798166 70.52996177 164.27245578 71.01200867 160.10726929 C70.5324694 156.45827515 69.87844733 154.43844482 67.76200867 151.32992554 C57.60457009 144.34668652 49.5804941 150.91403556 42.26200867 158.51742554 Z M-147.23799133 207.26742554 C-148.1777179 208.14721069 -148.1777179 208.14721069 -149.13642883 209.04476929 C-155.90380128 216.02629909 -158.42433206 223.69168825 -158.67549133 233.32992554 C-158.25851673 245.63740173 -154.34333144 253.65028871 -145.42549133 262.01742554 C-136.55545206 269.44587143 -126.53657534 271.07876003 -115.23799133 270.26742554 C-107.54937346 269.03473952 -102.01647105 266.4508673 -96.23799133 261.26742554 C-95.35111633 260.48367554 -94.46424133 259.69992554 -93.55049133 258.89242554 C-84.90695842 249.08084763 -83.04982473 238.09411567 -83.23799133 225.26742554 C-84.22799133 224.27742554 -84.22799133 224.27742554 -85.23799133 223.26742554 C-86.73449368 220.05060377 -88.1189838 216.79388561 -89.50752258 213.52914429 C-93.94362019 205.16765106 -101.89214277 201.63729111 -110.44502258 198.44320679 C-123.29744908 194.75238777 -137.55203855 198.07217081 -147.23799133 207.26742554 Z M-245.23799133 225.26742554 C-244.23799133 227.26742554 -244.23799133 227.26742554 -244.23799133 227.26742554 Z M-159.23799133 240.26742554 C-158.23799133 242.26742554 -158.23799133 242.26742554 -158.23799133 242.26742554 Z M242.76200867 320.26742554 C246.76200867 321.26742554 246.76200867 321.26742554 246.76200867 321.26742554 Z " fill="#7ADD8A" transform="translate(247.2379913330078,-0.267425537109375)"/>
<path d="M0 0 C0.99 0 1.98 0 3 0 C3 136.29 3 272.58 3 413 C2.01 413 1.02 413 0 413 C0 276.71 0 140.42 0 0 Z " fill="#5BA06B" transform="translate(633,26)"/>
<path d="M0 0 C2.1335336 -0.37259549 2.1335336 -0.37259549 4.83760262 -0.36914349 C5.86570301 -0.37511663 6.89380341 -0.38108978 7.95305836 -0.38724393 C9.09117148 -0.3785054 10.22928459 -0.36976688 11.40188599 -0.36076355 C13.20529585 -0.36460846 13.20529585 -0.36460846 15.04513824 -0.36853105 C18.39287693 -0.37263144 21.74009435 -0.36320582 25.08777022 -0.34819686 C28.69376753 -0.33528058 32.2997478 -0.33962282 35.90576172 -0.34190369 C42.15690071 -0.34347922 48.40794601 -0.33404083 54.65906143 -0.31719017 C63.69718726 -0.29284259 72.73526763 -0.28499926 81.7734227 -0.2812262 C96.436051 -0.27465503 111.09862932 -0.25467588 125.76123047 -0.22631836 C140.00732167 -0.19879497 154.25339931 -0.17755298 168.49951172 -0.16479492 C169.8159886 -0.16361267 169.8159886 -0.16361267 171.15906097 -0.16240653 C175.56183656 -0.15849151 179.96461225 -0.15470036 184.36738801 -0.15097082 C220.9116273 -0.11985422 257.45580976 -0.06700037 294 0 C294 0.99 294 1.98 294 3 C196.32 3 98.64 3 -2 3 C-1.34 2.01 -0.68 1.02 0 0 Z " fill="#508662" transform="translate(232,0)"/>
<path d="M0 0 C3.39093564 1.46855222 5.60012471 3.35294554 8.20147705 5.96096802 C9.03156281 6.78830444 9.86164856 7.61564087 10.71688843 8.4680481 C12.06987534 9.83182083 12.06987534 9.83182083 13.45019531 11.22314453 C14.41586059 12.18937413 15.38196683 13.1551632 16.34848022 14.12054443 C18.96835941 16.73984991 21.58202725 19.36527512 24.19462681 21.99183893 C26.92701415 24.7367305 29.66506796 27.47595771 32.40252686 30.21578979 C37.58422685 35.40370546 42.76080758 40.59669821 47.93557048 45.7915324 C53.82761146 51.70592965 59.72533385 57.61464752 65.62354136 63.52289414 C77.75536232 75.67561907 89.8800259 87.83546034 102 100 C100.25700569 100.71816444 100.25700569 100.71816444 98 101 C96.01412773 99.63774681 96.01412773 99.63774681 93.88790894 97.5093689 C93.07754181 96.71021057 92.26717468 95.91105225 91.43225098 95.087677 C90.55210327 94.19426605 89.67195557 93.3008551 88.76513672 92.38037109 C87.83142242 91.45220581 86.89770813 90.52404053 85.93569946 89.56774902 C83.37054469 87.01687664 80.82136482 84.45056463 78.27509451 81.8808589 C75.60951222 79.19520314 72.9309835 76.52251682 70.25418091 73.84805298 C65.75828259 69.35210103 61.27235547 64.84638762 56.79248047 60.33447266 C51.61478703 55.1199288 46.42322194 49.91953188 41.22358501 44.72687471 C36.22304636 39.73264581 31.23109511 34.72992385 26.24347305 29.72279739 C24.12084472 27.59199916 21.99551274 25.46395282 19.86800766 23.33802414 C17.36083246 20.83172911 14.8613544 18.31799778 12.36758041 15.79837036 C11.01557633 14.43580673 9.6562372 13.08053358 8.29669189 11.72549438 C7.49196442 10.90941711 6.68723694 10.09333984 5.85812378 9.25253296 C5.15722563 8.54790609 4.45632748 7.84327923 3.73418999 7.11730003 C1.87116063 4.84269797 0.94107297 2.77065705 0 0 Z " fill="#508363" transform="translate(98,346)"/>
<path d="M0 0 C1.19915039 -0.01289062 2.39830078 -0.02578125 3.63378906 -0.0390625 C4.75237305 -0.04035156 5.87095703 -0.04164062 7.0234375 -0.04296875 C8.50336182 -0.04913208 8.50336182 -0.04913208 10.01318359 -0.05541992 C12.69494139 0.19400511 14.33089661 0.81708044 16.625 2.1875 C-23.25808916 4.03886315 -23.25808916 4.03886315 -41.375 2.1875 C-41.375 1.8575 -41.375 1.5275 -41.375 1.1875 C-27.58650981 0.53585692 -13.80466328 0.07233253 0 0 Z " fill="#3D5951" transform="translate(594.375,-0.1875)"/>
<path d="M0 0 C0.98613281 0.04833984 1.97226562 0.09667969 2.98828125 0.14648438 C4.53708984 0.2305957 4.53708984 0.2305957 6.1171875 0.31640625 C7.15746094 0.36861328 8.19773437 0.42082031 9.26953125 0.47460938 C11.84403866 0.60451571 14.41818046 0.73948877 16.9921875 0.87890625 C16.9921875 1.53890625 16.9921875 2.19890625 16.9921875 2.87890625 C9.0721875 2.87890625 1.1521875 2.87890625 -7.0078125 2.87890625 C-7.0078125 2.21890625 -7.0078125 1.55890625 -7.0078125 0.87890625 C-4.45798817 -0.39600591 -2.84315826 -0.14705991 0 0 Z " fill="#669176" transform="translate(533.0078125,0.12109375000000001)"/>
<path d="M0 0 C-0.33 0.99 -0.66 1.98 -1 3 C-3.765625 4.09765625 -3.765625 4.09765625 -7.25 5.0625 C-11.27210285 6.19542264 -15.14915899 7.37135484 -19 9 C-17.83531655 6.0050997 -16.61217651 4.33793871 -13.78515625 2.77734375 C-9.11079644 0.81622136 -5.14674775 -0.54176292 0 0 Z " fill="#588869" transform="translate(122,195)"/>
<path d="M0 0 C0.81210937 0.41572266 0.81210937 0.41572266 1.640625 0.83984375 C-0.09475623 2.70986663 -1.8453085 4.55972467 -3.609375 6.40234375 C-4.10050781 6.93537109 -4.59164062 7.46839844 -5.09765625 8.01757812 C-6.5625 9.53125 -6.5625 9.53125 -9.359375 11.83984375 C-11.71875 11.6796875 -11.71875 11.6796875 -13.359375 10.83984375 C-11.62399377 8.96982087 -9.8734415 7.11996283 -8.109375 5.27734375 C-7.37267578 4.47780273 -7.37267578 4.47780273 -6.62109375 3.66210938 C-2.88743798 -0.19600158 -2.88743798 -0.19600158 0 0 Z " fill="#5FA270" transform="translate(52.359375,168.16015625)"/>
<path d="M0 0 C0 3 0 3 -1.87109375 4.9453125 C-2.71800781 5.66460938 -3.56492188 6.38390625 -4.4375 7.125 C-9.52162668 11.54188038 -14.29082834 16.18845504 -19 21 C-19.66 20.67 -20.32 20.34 -21 20 C-17.87904935 16.85012694 -14.75257094 13.70579867 -11.625 10.5625 C-10.73554688 9.66466797 -9.84609375 8.76683594 -8.9296875 7.84179688 C-7.65351563 6.56079102 -7.65351563 6.56079102 -6.3515625 5.25390625 C-5.56604004 4.46314697 -4.78051758 3.6723877 -3.97119141 2.85766602 C-2 1 -2 1 0 0 Z " fill="#8AED97" transform="translate(212,9)"/>
<path d="M0 0 C0.99 1.0209375 0.99 1.0209375 2 2.0625 C4.94297989 5.0139125 8.07523395 7.72835661 11.23046875 10.44921875 C12.52866688 11.58693322 13.7794033 12.7794033 15 14 C9.15775142 13.16539306 4.70070033 10.62587541 1 6 C0.25 2.75 0.25 2.75 0 0 Z " fill="#527764" transform="translate(93,252)"/>
<path d="M0 0 C0 3 0 3 -1.375 4.6875 C-3 6 -3 6 -5 6 C-5.23460937 6.57234375 -5.46921875 7.1446875 -5.7109375 7.734375 C-7.29406585 10.51684301 -9.1991525 12.17070214 -11.625 14.25 C-12.44226563 14.95640625 -13.25953125 15.6628125 -14.1015625 16.390625 C-14.72804688 16.92171875 -15.35453125 17.4528125 -16 18 C-16 15 -16 15 -14.7578125 13.39453125 C-14.21898437 12.87246094 -13.68015625 12.35039062 -13.125 11.8125 C-12.59132813 11.28269531 -12.05765625 10.75289062 -11.5078125 10.20703125 C-10 9 -10 9 -8 9 C-8 8.34 -8 7.68 -8 7 C-7.34 7 -6.68 7 -6 7 C-5.67 6.01 -5.34 5.02 -5 4 C-3.37667033 2.61423077 -1.71275535 1.27358732 0 0 Z " fill="#4E615E" transform="translate(38,180)"/>
<path d="M0 0 C4.98269033 2.27780129 7.89040722 6.01734276 10 11 C9.67 11.99 9.34 12.98 9 14 C0 3.89320388 0 3.89320388 0 0 Z " fill="#496D5D" transform="translate(624,9)"/>
<path d="M0 0 C0.99 0 1.98 0 3 0 C2.33333333 4 1.66666667 8 1 12 C0.01 12 -0.98 12 -2 12 C-1.85831863 10.56208484 -1.71148957 9.1246763 -1.5625 7.6875 C-1.48128906 6.88699219 -1.40007812 6.08648437 -1.31640625 5.26171875 C-1 3 -1 3 0 0 Z M-1 6 C0 8 0 8 0 8 Z " fill="#5C946E" transform="translate(3,219)"/>
<path d="M0 0 C3.4221718 1.46227028 5.52250488 3.36589632 8.0625 6.0625 C11.04513952 9.25269687 11.04513952 9.25269687 15 11 C15 11.99 15 12.98 15 14 C10.94772191 12.38873705 8.23778153 9.49978002 5.25 6.4375 C4.74339844 5.93025391 4.23679688 5.42300781 3.71484375 4.90039062 C0 1.14048812 0 1.14048812 0 0 Z " fill="#88E095" transform="translate(225,248)"/>
<path d="M0 0 C3.43927579 1.2419607 6.25207819 2.55740284 9 5 C9 5.66 9 6.32 9 7 C9.99 7.33 10.98 7.66 12 8 C11.01 8.495 11.01 8.495 10 9 C7.6171875 7.890625 7.6171875 7.890625 4.875 6.25 C3.50988281 5.45335937 3.50988281 5.45335937 2.1171875 4.640625 C1.41851562 4.09921875 0.71984375 3.5578125 0 3 C0 2.01 0 1.02 0 0 Z " fill="#4A775E" transform="translate(206,453)"/>
<path d="M0 0 C1.61725534 3.00950123 2.67582623 5.97103608 3.625 9.25 C3.88539063 10.14203125 4.14578125 11.0340625 4.4140625 11.953125 C4.60742188 12.62859375 4.80078125 13.3040625 5 14 C4.34 14 3.68 14 3 14 C-1.06153846 7.96923077 -1.06153846 7.96923077 -0.75 3.0625 C-0.5025 2.051875 -0.255 1.04125 0 0 Z " fill="#538164" transform="translate(479,157)"/>
<path d="M0 0 C1.32 0.33 2.64 0.66 4 1 C0.7 4.3 -2.6 7.6 -6 11 C-6 7.38462395 -5.10770759 5.88834003 -3 3 C-2.01 3 -1.02 3 0 3 C0 2.01 0 1.02 0 0 Z " fill="#4F7062" transform="translate(273,172)"/>
<path d="M0 0 C3.45201639 1.47721422 5.64961936 3.43794001 8.25 6.125 C8.95640625 6.84945313 9.6628125 7.57390625 10.390625 8.3203125 C11.18726562 9.15175781 11.18726562 9.15175781 12 10 C8.05594798 10 6.9482215 8.50598828 4 6 C3.01 5.34 2.02 4.68 1 4 C0.3125 1.875 0.3125 1.875 0 0 Z " fill="#84D791" transform="translate(67,315)"/>
<path d="M0 0 C0.88336837 2.4667645 1.1312406 3.63859372 0.22265625 6.140625 C-0.16019531 6.83671875 -0.54304687 7.5328125 -0.9375 8.25 C-1.31777344 8.95640625 -1.69804688 9.6628125 -2.08984375 10.390625 C-2.39019531 10.92171875 -2.69054687 11.4528125 -3 12 C-4.0516399 8.84508031 -3.98032423 7.96644412 -3.1875 4.875 C-3.01605469 4.17117188 -2.84460938 3.46734375 -2.66796875 2.7421875 C-2 1 -2 1 0 0 Z " fill="#47685A" transform="translate(634,439)"/>
<path d="M0 0 C2.23960447 2.87949147 4.29864224 5.76742026 6 9 C5.67 9.66 5.34 10.32 5 11 C2 10 2 10 0.25 7.1875 C-0.98589446 4.03596914 -1.28222189 3.03070628 0 0 Z " fill="#66A376" transform="translate(5,248)"/>
<path d="M0 0 C0.66 0.33 1.32 0.66 2 1 C2.125 7.75 2.125 7.75 1 10 C0.01 10 -0.98 10 -2 10 C-1.34 6.7 -0.68 3.4 0 0 Z " fill="#527764" transform="translate(162,240)"/>
<path d="M0 0 C4.29 0.99 8.58 1.98 13 3 C7.7037037 5.64814815 7.7037037 5.64814815 4 5 C2.68 3.35 1.36 1.7 0 0 Z " fill="#354949" transform="translate(108,266)"/>
<path d="M0 0 C0.33 0.66 0.66 1.32 1 2 C0.34 2 -0.32 2 -1 2 C-1.33 2.99 -1.66 3.98 -2 5 C-3.65 5.33 -5.3 5.66 -7 6 C-5.9024777 3.00675737 -5.32317108 2.15389099 -2.375 0.75 C-1.59125 0.5025 -0.8075 0.255 0 0 Z " fill="#68A478" transform="translate(180,40)"/>
<path d="M0 0 C0.99 0.33 1.98 0.66 3 1 C5.22574335 1.22451458 7.45581519 1.40782878 9.6875 1.5625 C10.86699219 1.64628906 12.04648437 1.73007812 13.26171875 1.81640625 C14.61716797 1.90728516 14.61716797 1.90728516 16 2 C16 2.33 16 2.66 16 3 C10.72 3 5.44 3 0 3 C0 2.01 0 1.02 0 0 Z " fill="#8CDA99" transform="translate(550,0)"/>
<path d="M0 0 C0.33 0 0.66 0 1 0 C2.171875 5.859375 2.171875 5.859375 2 8 C0.68 9.32 -0.64 10.64 -2 12 C-1.34 8.04 -0.68 4.08 0 0 Z " fill="#4D8360" transform="translate(318,157)"/>
<path d="M0 0 C-0.33 0.99 -0.66 1.98 -1 3 C-2.98 3.33 -4.96 3.66 -7 4 C-7.66 3.01 -8.32 2.02 -9 1 C-5.8035914 -0.06546953 -3.34252724 -0.07427838 0 0 Z " fill="#538666" transform="translate(232,1)"/>
<path d="M0 0 C0.99 0.33 1.98 0.66 3 1 C2.34 2.65 1.68 4.3 1 6 C0.01 6 -0.98 6 -2 6 C-2 4.35 -2 2.7 -2 1 C-1.34 0.67 -0.68 0.34 0 0 Z " fill="#6BA67A" transform="translate(480,151)"/>
<path d="M0 0 C1.9375 1.25 1.9375 1.25 3.9375 4.25 C0.11652761 3.71930939 -2.12421403 2.75298434 -5.0625 0.25 C-2.0625 -0.75 -2.0625 -0.75 0 0 Z " fill="#548865" transform="translate(500.0625,147.75)"/>
<path d="M0 0 C-0.33 0.99 -0.66 1.98 -1 3 C-4.0625 4.1875 -4.0625 4.1875 -7 5 C-7 4.01 -7 3.02 -7 2 C-4.35261084 0.5393715 -3.10551666 0 0 0 Z " fill="#5C926D" transform="translate(221,4)"/>
<path d="M0 0 C2.02045442 0.60183749 4.02111039 1.27306096 6 2 C6.33 2.66 6.66 3.32 7 4 C6.34 4.66 5.68 5.32 5 6 C3.35 4.02 1.7 2.04 0 0 Z " fill="#5E816D" transform="translate(92,342)"/>
<path d="M0 0 C0.66 0.99 1.32 1.98 2 3 C1.34 3 0.68 3 0 3 C-0.66 4.32 -1.32 5.64 -2 7 C-2.99 6.67 -3.98 6.34 -5 6 C-4.34 5.34 -3.68 4.68 -3 4 C-1.98758315 2.67607028 -0.98560611 1.34400833 0 0 Z " fill="#6A9F79" transform="translate(537,279)"/>
<path d="M0 0 C2.12038635 2.61514317 4.13091744 5.19637616 6 8 C5.01 8.495 5.01 8.495 4 9 C1.18167487 7.59083743 0.97406539 5.92219617 0 3 C0 2.01 0 1.02 0 0 Z " fill="#536A64" transform="translate(221,239)"/>
<path d="M0 0 C1.9375 1.0625 1.9375 1.0625 4 3 C4.75 6.6875 4.75 6.6875 5 10 C2.08772731 6.71195019 0.50298788 4.40114397 0 0 Z " fill="#528866" transform="translate(154,206)"/>
<path d="M0 0 C0.33 0 0.66 0 1 0 C1 1.98 1 3.96 1 6 C0.67 6 0.34 6 0 6 C0 4.02 0 2.04 0 0 Z " fill="#12142D" transform="translate(0,231)"/>
<path d="" fill="#050020" transform="translate(0,0)"/>
<path d="" fill="#0B0623" transform="translate(0,0)"/>
<path d="" fill="#0D0925" transform="translate(0,0)"/>
<path d="" fill="#0A0523" transform="translate(0,0)"/>
<path d="" fill="#0B0926" transform="translate(0,0)"/>
<path d="" fill="#0B0521" transform="translate(0,0)"/>
<path d="" fill="#0B0724" transform="translate(0,0)"/>
<path d="" fill="#05001E" transform="translate(0,0)"/>
<path d="" fill="#050521" transform="translate(0,0)"/>
<path d="" fill="#09071F" transform="translate(0,0)"/>
<path d="" fill="#050022" transform="translate(0,0)"/>
<path d="" fill="#04001E" transform="translate(0,0)"/>
<path d="" fill="#060020" transform="translate(0,0)"/>
<path d="" fill="#09001C" transform="translate(0,0)"/>
<path d="" fill="#050020" transform="translate(0,0)"/>
<path d="" fill="#07011D" transform="translate(0,0)"/>
<path d="" fill="#04001F" transform="translate(0,0)"/>
<path d="" fill="#04001D" transform="translate(0,0)"/>
<path d="" fill="#090221" transform="translate(0,0)"/>
<path d="" fill="#080219" transform="translate(0,0)"/>
<path d="" fill="#06001E" transform="translate(0,0)"/>
<path d="" fill="#07001F" transform="translate(0,0)"/>
<path d="" fill="#0A0022" transform="translate(0,0)"/>
<path d="" fill="#040120" transform="translate(0,0)"/>
<path d="" fill="#07001E" transform="translate(0,0)"/>
<path d="" fill="#050022" transform="translate(0,0)"/>
<path d="" fill="#080326" transform="translate(0,0)"/>
<path d="" fill="#0A001C" transform="translate(0,0)"/>
<path d="" fill="#08021D" transform="translate(0,0)"/>
<path d="" fill="#070223" transform="translate(0,0)"/>
<path d="" fill="#080325" transform="translate(0,0)"/>
<path d="" fill="#0A0320" transform="translate(0,0)"/>
<path d="" fill="#01051E" transform="translate(0,0)"/>
<path d="" fill="#09021D" transform="translate(0,0)"/>
<path d="" fill="#060120" transform="translate(0,0)"/>
<path d="" fill="#090520" transform="translate(0,0)"/>
<path d="" fill="#050322" transform="translate(0,0)"/>
<path d="" fill="#060424" transform="translate(0,0)"/>
<path d="" fill="#070520" transform="translate(0,0)"/>
<path d="" fill="#080526" transform="translate(0,0)"/>
<path d="" fill="#060221" transform="translate(0,0)"/>
<path d="" fill="#0C0523" transform="translate(0,0)"/>
<path d="" fill="#070120" transform="translate(0,0)"/>
<path d="" fill="#090423" transform="translate(0,0)"/>
<path d="" fill="#08051F" transform="translate(0,0)"/>
<path d="" fill="#0A0524" transform="translate(0,0)"/>
<path d="" fill="#090021" transform="translate(0,0)"/>
<path d="" fill="#0A0824" transform="translate(0,0)"/>
<path d="" fill="#050524" transform="translate(0,0)"/>
<path d="" fill="#0C0825" transform="translate(0,0)"/>
<path d="" fill="#0A0E25" transform="translate(0,0)"/>
<path d="" fill="#090522" transform="translate(0,0)"/>
<path d="" fill="#080923" transform="translate(0,0)"/>
<path d="" fill="#070A20" transform="translate(0,0)"/>
<path d="" fill="#080219" transform="translate(0,0)"/>
<path d="" fill="#07001D" transform="translate(0,0)"/>
<path d="" fill="#080422" transform="translate(0,0)"/>
<path d="" fill="#08011F" transform="translate(0,0)"/>
<path d="" fill="#070222" transform="translate(0,0)"/>
<path d="" fill="#0B041F" transform="translate(0,0)"/>
<path d="" fill="#06001F" transform="translate(0,0)"/>
</svg>
